<svg width="655" height="258" xmlns="http://www.w3.org/2000/svg">

 <g>
  <title>background</title>
  <rect fill="none" id="canvas_background" height="260" width="657" y="-1" x="-1"/>
 </g>
 <g>
  <title>Layer 1</title>
  <g id="svg_1" fill="none">
   <path id="svg_2" d="m563,227c-41.421,0 -75,-33.579 -75,-75s33.579,-75 75,-75s75,33.579 75,75s-33.579,75 -75,75zm0,-31c24.3,0 44,-19.7 44,-44s-19.7,-44 -44,-44s-44,19.7 -44,44s19.7,44 44,44zm-157,31c-41.421,0 -75,-33.579 -75,-75s33.579,-75 75,-75s75,33.579 75,75s-33.579,75 -75,75zm0,-31c24.3,0 44,-19.7 44,-44s-19.7,-44 -44,-44s-44,19.7 -44,44s19.7,44 44,44zm-82,-45c0,41.935 -33.592,76 -75.009,76c-41.416,0 -74.991,-33.995 -74.991,-75.93c0,-41.936 30.5,-74.07 74.991,-74.07c16.442,0 31.647,3.496 44.007,12.58l0.002,-43.49c0,-8.334 7.27,-15.09 15.5,-15.09c8.228,0 15.5,6.762 15.5,15.09l0,104.91zm-75,45c24.3,0 44,-19.7 44,-44s-19.7,-44 -44,-44s-44,19.7 -44,44s19.7,44 44,44z" fill="#FFFFFF"/>
   <path id="svg_3" d="m92,227c-41.421,0 -75,-33.579 -75,-75s33.579,-75 75,-75s75,33.579 75,75s-33.579,75 -75,75zm0,-31c24.3,0 44,-19.7 44,-44s-19.7,-44 -44,-44s-44,19.7 -44,44s19.7,44 44,44z" fill="#875A7B"/>
  </g>
 </g>
</svg>